HIERARCHY
ROOT root
{
	OFFSET 0.000000 0.000000 0.000000
	CHANNELS 6 Xposition Yposition Zposition Zrotation Yrotation Xrotation
	JOINT lhip
	{
		OFFSET 0.058581 -0.082280 -0.017664
		CHANNELS 3 Zrotation Yrotation Xrotation
		JOINT lknee
		{
			OFFSET 0.043451 -0.386469 0.008037
			CHANNELS 3 Zrotation Yrotation Xrotation
			JOINT lankle
			{
				OFFSET -0.014790 -0.426874 -0.037428
				CHANNELS 3 Zrotation Yrotation Xrotation
				JOINT ltoe
				{
					OFFSET 0.041054 -0.060286 0.122042
					CHANNELS 3 Zrotation Yrotation Xrotation
					End Site
					{
						OFFSET 0.000000 0.000000 0.000000
					}
				}
			}
		}
	}
	JOINT rhip
	{
		OFFSET -0.060310 -0.090513 -0.013543
		CHANNELS 3 Zrotation Yrotation Xrotation
		JOINT rknee
		{
			OFFSET -0.043257 -0.383688 -0.004843
			CHANNELS 3 Zrotation Yrotation Xrotation
			JOINT rankle
			{
				OFFSET 0.019056 -0.420046 -0.034562
				CHANNELS 3 Zrotation Yrotation Xrotation
				JOINT rtoe
				{
					OFFSET -0.034840 -0.062106 0.130323
					CHANNELS 3 Zrotation Yrotation Xrotation
					End Site
					{
						OFFSET 0.000000 0.000000 0.000000
					}
				}
			}
		}
	}
	JOINT lowerback
	{
		OFFSET 0.004439 0.124404 -0.038385
		CHANNELS 3 Zrotation Yrotation Xrotation
		JOINT upperback
		{
			OFFSET 0.004488 0.137956 0.026820
			CHANNELS 3 Zrotation Yrotation Xrotation
			JOINT chest
			{
				OFFSET -0.002265 0.056032 0.002855
				CHANNELS 3 Zrotation Yrotation Xrotation
				JOINT lowerneck
				{
					OFFSET -0.013390 0.211636 -0.033468
					CHANNELS 3 Zrotation Yrotation Xrotation
					JOINT upperneck
					{
						OFFSET 0.010113 0.088937 0.050410
						CHANNELS 3 Zrotation Yrotation Xrotation
						End Site
						{
							OFFSET 0.000000 0.000000 0.000000
						}
					}
				}
				JOINT lclavicle
				{
					OFFSET 0.071702 0.114000 -0.018898
					CHANNELS 3 Zrotation Yrotation Xrotation
					JOINT lshoulder
					{
						OFFSET 0.122921 0.045205 -0.019046
						CHANNELS 3 Zrotation Yrotation Xrotation
						JOINT lelbow
						{
							OFFSET 0.255332 -0.015649 -0.022946
							CHANNELS 3 Zrotation Yrotation Xrotation
							JOINT lwrist
							{
								OFFSET 0.265709 0.012698 -0.007375
								CHANNELS 3 Zrotation Yrotation Xrotation
								End Site
								{
									OFFSET 0.000000 0.000000 0.000000
								}
							}
						}
					}
				}
				JOINT rclavicle
				{
					OFFSET -0.082954 0.112472 -0.023707
					CHANNELS 3 Zrotation Yrotation Xrotation
					JOINT rshoulder
					{
						OFFSET -0.113228 0.046853 -0.008472
						CHANNELS 3 Zrotation Yrotation Xrotation
						JOINT relbow
						{
							OFFSET -0.260127 -0.014369 -0.031269
							CHANNELS 3 Zrotation Yrotation Xrotation
							JOINT rwrist
							{
								OFFSET -0.269108 0.006794 -0.006027
								CHANNELS 3 Zrotation Yrotation Xrotation
								End Site
								{
									OFFSET 0.000000 0.000000 0.000000
								}
							}
						}
					}
				}
			}
		}
	}
}
MOTION
Frames: 10
Frame Time: 0.033333
0.027336 0.619792 1.022988 75.174969 1.587960 84.788177 1.920725 -0.435477 -1.306443 -7.018857 -12.645250 9.684064 3.805595 4.263604 -8.404919 0.000000 -0.000000 0.000000 -3.123155 -4.329365 -7.747018 1.032169 -8.000510 46.400780 6.687739 -9.218043 -5.433761 0.000000 -0.000000 0.000000 -3.948569 0.433622 15.934352 2.723881 -1.661865 -3.493818 0.290698 -3.022819 1.353042 5.231422 -14.244354 -7.588225 0.287555 -22.322097 6.697586 -25.919862 5.061695 1.558810 -48.513368 -9.662539 5.969202 11.572621 -27.721406 -1.266613 -3.210153 -2.717830 -8.628393 31.042756 -0.308016 -3.420255 53.896802 0.667157 11.466487 -14.200479 17.385920 -10.817822 8.501901 1.482960 -5.505867 
0.014324 0.627094 1.021482 74.054510 0.882642 84.634735 1.000536 -1.015960 -2.169216 -7.024969 -11.671460 10.434990 3.765693 5.006694 -8.815045 0.000000 -0.000000 0.000000 -2.344773 -4.780672 -4.211848 2.022924 -6.664371 45.068489 6.728647 -8.630591 -5.854843 0.000000 -0.000000 0.000000 -3.749262 1.364654 14.910207 2.095176 -1.546232 -3.286191 -0.219399 -2.318968 1.353481 4.506700 -15.019919 -6.932256 0.728664 -22.303359 6.251932 -25.957276 5.118897 1.270780 -48.911985 -8.600342 5.522096 11.271700 -25.014947 -2.238493 -3.569759 -1.582697 -11.299038 30.677399 0.144312 -3.002041 53.940944 0.777267 11.606216 -13.771492 18.690288 -10.168282 8.449563 1.390877 -6.433727 
0.000215 0.633805 1.019558 72.791637 0.111544 84.540018 0.076752 -1.458532 -3.419750 -6.819812 -9.808068 10.815096 3.278426 5.455910 -9.060371 0.000000 -0.000000 0.000000 -1.593588 -4.993689 -0.188801 2.452061 -5.011412 41.348537 8.145197 -7.136611 -6.765682 0.000000 -0.000000 0.000000 -3.431068 2.523812 14.201513 1.428143 -1.391622 -3.254365 -0.790314 -1.724611 1.202364 4.183679 -15.169579 -6.927059 0.612940 -22.728426 6.924809 -26.433085 5.299336 0.993472 -48.848347 -7.970783 5.197483 12.256438 -24.601182 -3.524580 -4.017192 -1.620800 -9.706723 30.223278 0.458398 -2.840503 54.241626 1.054092 11.852846 -13.708766 20.036265 -9.747161 8.852774 2.006705 -6.218295 
-0.019474 0.641954 1.015537 70.863674 -0.887045 84.865891 -0.988102 -1.786114 -6.227866 -6.902330 -7.711841 12.881837 3.482802 6.147007 -9.349751 0.000000 -0.000000 0.000000 -0.886439 -5.330785 4.147994 2.540103 -2.210309 34.654144 9.460981 -5.181214 -6.734924 0.000000 -0.000000 0.000000 -3.236023 3.771649 13.542960 0.670372 -1.221865 -3.777173 -1.200436 -0.889468 1.149537 3.674814 -15.122380 -7.246736 0.502312 -22.392337 7.630086 -26.796296 6.097951 0.277477 -49.413885 -6.730849 5.240014 12.298550 -23.916409 -3.965948 -3.093435 -1.956851 -9.697653 29.838633 0.698794 -2.948048 53.961752 1.648338 12.554500 -13.135995 22.117824 -8.646533 7.953540 2.269733 -6.180056 
-0.033554 0.646960 1.011765 69.552356 -1.440541 85.621532 -1.394708 -2.170288 -8.851589 -6.835281 -6.232336 14.308456 3.501707 6.507696 -8.863718 0.000000 -0.000000 0.000000 -0.433268 -5.121737 5.819850 2.083452 -0.555361 29.552285 7.406565 -5.012616 -10.622348 0.000000 -0.000000 0.000000 -3.239201 4.462062 13.348533 0.285308 -0.984313 -4.727207 -1.255087 -0.223359 0.974812 3.381381 -15.081370 -7.492528 0.296687 -22.652561 8.037842 -26.821586 6.617012 -0.136553 -50.039104 -5.689657 5.499587 12.002444 -23.718900 -3.304071 -2.691347 -2.378358 -10.119979 29.405928 0.350254 -3.419709 53.973458 1.839216 12.884282 -12.810294 23.624175 -7.365601 7.408177 2.528612 -6.517912 
-0.051399 0.653232 1.006865 67.199732 -1.812960 85.800068 -1.373482 -2.104611 -11.296070 -6.803748 -3.556916 16.069010 3.243471 7.094855 -8.788951 0.000000 -0.000000 0.000000 -0.372694 -5.451111 7.915034 1.355185 0.823103 23.607696 5.123987 -5.827004 -15.555756 0.000000 -0.000000 0.000000 -2.287608 5.622091 13.638278 -0.299519 -0.526146 -5.219901 -1.724349 0.221797 1.047343 3.207443 -14.558689 -8.712283 -0.406927 -22.814338 9.011444 -27.458167 7.258685 -0.568942 -50.252448 -4.868342 5.514173 11.790285 -24.101082 -2.732737 -2.546449 -2.259468 -10.628237 29.430401 0.916393 -3.412163 53.432747 3.020628 13.224708 -12.723864 25.200069 -7.238295 6.425438 2.577265 -6.766639 
-0.069802 0.660743 1.003875 65.152486 -1.753346 85.719594 -0.871216 -1.820459 -13.579057 -6.853458 -1.858350 18.215301 2.833575 7.243790 -8.906716 0.000000 -0.000000 0.000000 -0.139855 -5.217074 9.387118 0.929067 0.911997 18.838992 3.395620 -5.836462 -17.870155 0.000000 -0.000000 0.000000 -0.978189 6.084400 14.470458 -0.812329 0.039431 -5.262866 -2.056450 0.844798 1.013216 3.252501 -14.339108 -10.124936 -0.687178 -22.877469 9.086710 -28.376789 7.315739 -1.216375 -50.612582 -4.346252 5.591766 11.648946 -23.582340 -2.100514 -2.873712 -2.537647 -10.216080 29.336205 1.764789 -3.566518 52.984157 4.560148 13.035375 -12.635717 25.618937 -7.345598 5.765949 3.156984 -6.924995 
-0.088954 0.668662 1.001619 63.533294 -1.663695 86.036022 -0.240004 -2.282592 -15.781576 -6.897051 -0.407046 19.438763 2.559218 7.801659 -9.036666 0.000000 -0.000000 0.000000 0.200864 -4.700882 9.586480 0.868192 1.519226 15.367558 2.060550 -6.121731 -19.913911 0.000000 -0.000000 0.000000 -0.017306 6.491990 15.042822 -0.983324 0.346902 -5.391590 -2.115330 1.125542 0.924572 3.102045 -14.001735 -10.871650 -0.848115 -22.445397 8.397214 -28.767494 7.143813 -1.253762 -51.916878 -3.920592 5.991183 11.652797 -23.087247 -1.271068 -2.905225 -1.708668 -9.897920 28.646201 2.562389 -3.554779 53.056499 6.065524 12.943018 -12.743088 26.072399 -7.421185 5.171863 2.877611 -7.393650 
-0.105635 0.675875 0.999820 62.019113 -1.531630 86.033369 0.399280 -2.060373 -17.115878 -6.888044 0.684262 19.746600 2.110375 7.832951 -7.982172 0.000000 -0.000000 0.000000 0.239713 -4.527854 9.621173 1.007934 2.732147 13.339781 1.058018 -5.458886 -21.326445 0.000000 -0.000000 0.000000 0.536285 6.816966 15.598576 -0.918932 0.397837 -4.991382 -1.854442 1.424334 0.565267 2.992952 -13.388430 -11.277021 -0.811003 -21.816953 7.659690 -29.062413 6.709007 -1.115471 -53.417466 -3.071088 6.316477 11.626264 -23.001686 -0.883527 -2.703922 -1.068774 -9.504506 28.048535 3.612866 -3.252250 52.830297 7.328384 12.615514 -12.690571 26.579705 -7.657887 4.935068 2.904608 -7.509813 
-0.123148 0.684455 1.002393 61.324341 -0.919041 85.776190 1.001222 -2.432853 -16.923432 -6.207688 0.227025 17.618611 1.050724 7.643627 -5.899375 0.000000 -0.000000 0.000000 0.840554 -3.223745 8.232590 1.607833 3.109241 14.071350 1.477894 -6.015683 -20.740349 0.000000 -0.000000 0.000000 1.172013 5.996935 16.025429 -0.375437 0.457471 -4.320937 -1.578790 0.762156 0.861639 3.493033 -12.144525 -12.605083 -1.896781 -21.043295 8.402132 -30.328162 6.633000 -1.369287 -54.311883 -2.975785 7.380380 11.233563 -21.496894 -0.290079 -3.057840 -2.145053 -9.020191 29.036949 5.080936 -3.105441 51.329991 9.872549 13.569351 -12.505961 25.646181 -8.429206 4.331459 3.142597 -6.789020 
